IKResults
version=1
nRows=7
nColumns=40
inDegrees=yes

Units are S.I. units (second, meters, Newtons, ...)
Angles are in degrees.

endheader
time	pelvis_tilt	pelvis_list	pelvis_rotation	pelvis_tx	pelvis_ty	pelvis_tz	hip_flexion_r	hip_adduction_r	hip_rotation_r	knee_angle_r	knee_angle_r_beta	ankle_angle_r	subtalar_angle_r	mtp_angle_r	hip_flexion_l	hip_adduction_l	hip_rotation_l	knee_angle_l	knee_angle_l_beta	ankle_angle_l	subtalar_angle_l	mtp_angle_l	lumbar_extension	lumbar_bending	lumbar_rotation	arm_flex_r	arm_add_r	arm_rot_r	elbow_flex_r	pro_sup_r	wrist_flex_r	wrist_dev_r	arm_flex_l	arm_add_l	arm_rot_l	elbow_flex_l	pro_sup_l	wrist_flex_l	wrist_dev_l
      2.28000000	     15.64443478	     -3.74949095	      3.45116290	      0.40238672	      0.94477178	     -1.05063741	      4.04883092	      1.16196892	    -26.32643735	    -12.51896408	     -0.21849714	      0.97913771	     10.05316684	     -9.49942856	    -23.95622801	      2.80154432	     15.41024843	    -10.23214591	     -0.17858464	     11.01909911	     -6.94648320	     -6.19747105	    -24.48304471	      3.62655805	     -4.18762505	     -2.12579712	    -10.08206532	     -1.15127479	     17.54180184	     89.95437384	      0.00000000	      0.00000000	     14.00418192	     10.12077197	      1.90818633	     39.64814371	     89.95437384	      0.00000000	      0.00000000
      2.29000000	     15.81910184	     -3.93331563	      3.82814565	      0.40854288	      0.94418339	     -1.05035697	      3.72118602	      1.55321158	    -26.61341185	    -11.60069844	     -0.20247038	      1.32776452	     10.30833373	     -9.68677627	    -24.37511212	      3.21556805	     14.98450665	    -10.55026050	     -0.18413678	     11.46923920	     -6.66272194	     -6.24147180	    -24.60217767	      3.98541073	     -4.41514404	     -2.19384499	    -10.10286691	     -1.14546235	     17.48609630	     89.95437384	      0.00000000	      0.00000000	     13.84298086	     10.10727218	      1.85090986	     40.44191016	     89.95437384	      0.00000000	      0.00000000
      2.30000000	     15.65288958	     -3.83618418	      3.78716996	      0.41449516	      0.94310114	     -1.04997764	      4.09677315	      1.44184197	    -26.73459344	    -11.50295001	     -0.20076435	      1.49379990	     10.03140368	     -9.60781238	    -24.47746417	      3.13094003	     14.91838294	    -10.79489353	     -0.18840643	     11.53219920	     -6.53880239	     -6.19544673	    -24.39669086	      3.94894058	     -4.29974096	     -2.34355703	    -10.19040319	     -1.12204946	     17.45533186	     89.95437384	      0.00000000	      0.00000000	     13.89713292	      9.93377765	      1.80004632	     40.76159376	     89.95437384	      0.00000000	      0.00000000
      2.31000000	     15.52608114	     -3.79266150	      3.79083187	      0.42059624	      0.94198869	     -1.04944036	      4.35215406	      1.43229673	    -26.79490587	    -11.40971830	     -0.19913715	      1.78092313	      9.80248903	     -9.56319558	    -24.63862551	      3.13433131	     14.79552166	    -11.02697716	     -0.19245706	     11.73671487	     -6.42619497	     -6.16701013	    -24.21231332	      3.96142882	     -4.25603205	     -2.45256736	    -10.23646978	     -1.13985881	     17.41775521	     89.95437384	      0.00000000	      0.00000000	     13.86883650	      9.80945764	      1.77006297	     41.13516922	     89.95437384	      0.00000000	      0.00000000
      2.32000000	     15.75657122	     -4.04105576	      4.35697520	      0.42690454	      0.94135530	     -1.04913638	      3.88735382	      1.92257439	    -26.86243367	    -10.85773961	     -0.18950331	      2.07039640	      9.35971250	     -9.75579410	    -25.07820072	      3.69206807	     13.96981187	    -11.41312662	     -0.19919664	     12.50774465	     -5.73314382	     -6.23861799	    -24.38251894	      4.45288683	     -4.70751322	     -2.44876400	    -10.21079791	     -1.35138413	     17.38807833	     89.95437384	      0.00000000	      0.00000000	     13.60580081	      9.90961839	      1.64575913	     41.95426741	     89.95437384	      0.00000000	      0.00000000
      2.33000000	     15.57478061	     -3.97718682	      4.32667859	      0.43323159	      0.94009016	     -1.04851753	      4.15998195	      1.88148775	    -26.73807717	    -10.98632614	     -0.19174756	      2.20784758	      9.07846675	     -9.67512427	    -25.18355223	      3.66450590	     13.80640385	    -11.67491674	     -0.20376574	     12.63106667	     -5.60812705	     -6.19522215	    -24.12903697	      4.43657315	     -4.62722144	     -2.55227764	    -10.30609132	     -1.42574199	     17.40171726	     89.95437384	      0.00000000	      0.00000000	     13.55276677	      9.77222681	      1.60295338	     42.22585587	     89.95437384	      0.00000000	      0.00000000
      2.34000000	     15.51147685	     -4.03445973	      4.42155973	      0.43967550	      0.93890035	     -1.04789938	      4.22157550	      2.01082061	    -26.46502553	    -11.14556297	     -0.19452677	      2.49202658	      8.85034604	     -9.66423686	    -25.42789037	      3.80851491	     13.48345105	    -11.91027431	     -0.20787350	     13.10329446	     -5.43126309	     -6.19720222	    -23.98981757	      4.60007496	     -4.67347363	     -2.59878920	    -10.33205979	     -1.59408820	     17.32579163	     89.95437384	      0.00000000	      0.00000000	     13.42587322	      9.71860432	      1.52366695	     42.61879207	     89.95437384	      0.00000000	      0.00000000
